<?xml version="1.0" encoding="UTF-8" standalone="no"?>
<svg
   width="100%"
   height="100%"
   viewBox="0 0 256 256"
   version="1.1"
   xml:space="preserve"
   style="fill-rule:evenodd;clip-rule:evenodd;stroke-linejoin:round;stroke-miterlimit:2;"
   id="svg1"
   sodipodi:docname="amazon-luna-logo.svg"
   inkscape:export-filename="amazon-luna-logo.svg"
   inkscape:export-xdpi="96"
   inkscape:export-ydpi="96"
   inkscape:version="1.3.2 (091e20e, 2023-11-25)"
   xmlns:inkscape="http://www.inkscape.org/namespaces/inkscape"
   xmlns:sodipodi="http://sodipodi.sourceforge.net/DTD/sodipodi-0.dtd"
   xmlns="http://www.w3.org/2000/svg"
   xmlns:svg="http://www.w3.org/2000/svg"><defs
   id="defs1" /><sodipodi:namedview
   id="namedview1"
   pagecolor="#ffffff"
   bordercolor="#000000"
   borderopacity="0.25"
   inkscape:showpageshadow="2"
   inkscape:pageopacity="0.0"
   inkscape:pagecheckerboard="0"
   inkscape:deskcolor="#d1d1d1"
   showgrid="false"
   inkscape:zoom="2.5664062"
   inkscape:cx="128"
   inkscape:cy="127.80518"
   inkscape:window-width="1264"
   inkscape:window-height="919"
   inkscape:window-x="485"
   inkscape:window-y="170"
   inkscape:window-maximized="0"
   inkscape:current-layer="svg1" />
    
<g
   id="f9146ffff"
   transform="matrix(1.4903919,0,0,1.5235234,-134.39254,-0.37545034)"
   style="fill:#000000;fill-opacity:1"
   inkscape:label="00000000"><path
     fill="#9146ff"
     opacity="1"
     d="m 165.3,1.16 c 7.05,-1.84 14.89,-0.53 20.84,3.71 7.3,5.06 11.61,14.21 10.49,23.08 -1.21,12.11 -1.48,25.43 5.25,36.12 4.2,7.16 8.31,14.38 12.48,21.56 5.36,9.49 14.47,16.74 24.87,19.96 8.44,2.53 15.69,8.75 19.45,16.72 5.25,10.75 3.83,24.38 -3.63,33.76 -8.12,10.67 -23.2,14.98 -35.81,10.55 -6.62,-2.04 -11.35,-7.46 -17.62,-10.19 -18.1,-9 -38.94,-9.28 -58.65,-7.62 -10.59,0.79 -20.63,4.49 -30.7,7.58 -7.34,2.06 -15.73,-1.55 -19.4,-8.2 -4.85,-8.19 -1.51,-20 7.16,-24.14 7.94,-4.24 13.34,-11.64 17.85,-19.2 8.22,-14.14 16.34,-28.33 24.53,-42.48 4.74,-8.25 5.07,-18.08 4.84,-27.35 -0.03,-4.68 -1.39,-9.37 -0.34,-14.02 1.55,-9.46 9.1,-17.56 18.39,-19.84 m 0.14,58.47 c -5.47,2.08 -8.56,7.46 -11.82,11.97 -8.07,12.05 -15.12,24.79 -21.06,38.02 -3.35,7.69 0.1,17.42 7.44,21.4 4.87,2.67 10.6,2.43 15.97,3.01 13.98,0.76 28.08,0.75 41.98,-1.08 7.41,-1.01 13.16,-7.64 14.08,-14.9 0.75,-4.78 -1.46,-9.31 -3.58,-13.45 -3.82,-8.26 -8.46,-16.11 -13.01,-23.98 -3.65,-6.18 -7.42,-12.42 -12.49,-17.56 -4.46,-4.58 -11.65,-5.33 -17.51,-3.43 z"
     id="path1-2"
     style="fill:#000000;fill-opacity:1" /></g></svg>
