<?xml version="1.0" encoding="UTF-8" standalone="no"?>
<!DOCTYPE svg PUBLIC "-//W3C//DTD SVG 1.1//EN" "http://www.w3.org/Graphics/SVG/1.1/DTD/svg11.dtd">
<svg width="100%" height="100%" viewBox="0 0 256 256" version="1.1" xmlns="http://www.w3.org/2000/svg" xmlns:xlink="http://www.w3.org/1999/xlink" xml:space="preserve" xmlns:serif="http://www.serif.com/" style="fill-rule:evenodd;clip-rule:evenodd;stroke-linejoin:round;stroke-miterlimit:2;">
    <g id="path1-2" transform="matrix(1.495527,0,0,1.523523,-135.736917,-0.37545)">
        <g id="_00000000" serif:id="00000000">
            <path id="path1-21" serif:id="path1-2" d="M165.3,1.16C172.35,-0.68 180.19,0.63 186.14,4.87C193.44,9.93 197.75,19.08 196.63,27.95C195.42,40.06 195.15,53.38 201.88,64.07C206.08,71.23 210.19,78.45 214.36,85.63C219.72,95.12 228.83,102.37 239.23,105.59C247.67,108.12 254.92,114.34 258.68,122.31C263.93,133.06 262.51,146.69 255.05,156.07C246.93,166.74 231.85,171.05 219.24,166.62C212.62,164.58 207.89,159.16 201.62,156.43C183.52,147.43 162.68,147.15 142.97,148.81C132.38,149.6 122.34,153.3 112.27,156.39C104.93,158.45 96.54,154.84 92.87,148.19C88.02,140 91.36,128.19 100.03,124.05C107.97,119.81 113.37,112.41 117.88,104.85C126.1,90.71 134.22,76.52 142.41,62.37C147.15,54.12 147.48,44.29 147.25,35.02C147.22,30.34 145.86,25.65 146.91,21C148.46,11.54 156.01,3.44 165.3,1.16M165.44,59.63C159.97,61.71 156.88,67.09 153.62,71.6C145.55,83.65 138.5,96.39 132.56,109.62C129.21,117.31 132.66,127.04 140,131.02C144.87,133.69 150.6,133.45 155.97,134.03C169.95,134.79 184.05,134.78 197.95,132.95C205.36,131.94 211.11,125.31 212.03,118.05C212.78,113.27 210.57,108.74 208.45,104.6C204.63,96.34 199.99,88.49 195.44,80.62C191.79,74.44 188.02,68.2 182.95,63.06C178.49,58.48 171.3,57.73 165.44,59.63Z"/>
        </g>
    </g>
</svg>
