<?xml version="1.0" encoding="UTF-8" standalone="no"?>
<!DOCTYPE svg PUBLIC "-//W3C//DTD SVG 1.1//EN" "http://www.w3.org/Graphics/SVG/1.1/DTD/svg11.dtd">
<svg width="100%" height="100%" viewBox="0 0 256 256" version="1.1" xmlns="http://www.w3.org/2000/svg" xmlns:xlink="http://www.w3.org/1999/xlink" xml:space="preserve" xmlns:serif="http://www.serif.com/" style="fill-rule:evenodd;clip-rule:evenodd;stroke-linejoin:round;stroke-miterlimit:2;">
    <g transform="matrix(12.8,0,0,12.8,-25.6,-25.6)">
        <path d="M4,3L20,3C21.097,3 22,3.903 22,5L22,19C22,20.097 21.097,21 20,21L4,21C2.903,21 2,20.097 2,19L2,5C2,3.903 2.903,3 4,3M10.46,5.54C9.95,5.54 9.54,5.95 9.54,6.46L9.54,9.54C9.54,10.045 9.955,10.46 10.46,10.46L13.54,10.46C14.045,10.46 14.46,10.045 14.46,9.54L14.46,6.46C14.46,5.95 14.05,5.54 13.54,5.54L10.46,5.54M11.08,6.77L12.92,6.77C13.09,6.77 13.23,6.91 13.23,7.08L13.23,8.92C13.23,9.09 13.09,9.23 12.92,9.23L11.08,9.23C10.91,9.23 10.77,9.09 10.77,8.92L10.77,7.08C10.77,6.91 10.91,6.77 11.08,6.77M4.92,5.54C4.415,5.54 4,5.955 4,6.46L4,9.54C4,10.05 4.41,10.46 4.92,10.46L7.08,10.46L7.08,9.23L5.54,9.23C5.37,9.23 5.23,9.09 5.23,8.92L5.23,7.08C5.23,6.91 5.37,6.77 5.54,6.77L7.38,6.77C7.55,6.77 7.69,6.91 7.69,7.08L7.69,10.77C7.69,10.94 7.55,11.08 7.38,11.08L4,11.08L4,12.31L8,12.31C8.5,12.31 8.92,11.89 8.92,11.38L8.92,6.46C8.92,5.955 8.505,5.54 8,5.54L4.92,5.54M16,5.54C15.5,5.54 15.08,5.95 15.08,6.46L15.08,9.54C15.08,10.05 15.5,10.46 16,10.46L18.15,10.46L18.15,9.23L16.62,9.23C16.45,9.23 16.31,9.09 16.31,8.92L16.31,7.08C16.31,6.91 16.45,6.77 16.62,6.77L18.46,6.77C18.63,6.77 18.77,6.91 18.77,7.08L18.77,10.77C18.77,10.94 18.63,11.08 18.46,11.08L15.08,11.08L15.08,12.31L19.08,12.31C19.59,12.31 20,11.89 20,11.38L20,6.46C20,5.95 19.59,5.54 19.08,5.54L16,5.54M9.85,13.54C9.34,13.54 8.92,13.95 8.92,14.46L8.92,17.54C8.92,18.05 9.34,18.46 9.85,18.46L12.92,18.46C13.43,18.46 13.85,18.05 13.85,17.54L13.85,14.46C13.85,13.95 13.43,13.54 12.92,13.54L9.85,13.54M10.46,14.77L12.31,14.77C12.5,14.77 12.62,14.91 12.62,15.08L12.62,16.92C12.62,17.09 12.48,17.23 12.31,17.23L10.46,17.23C10.29,17.23 10.15,17.09 10.15,16.92L10.15,15.08C10.15,14.91 10.29,14.77 10.46,14.77M4.92,13.54C4.41,13.54 4,13.95 4,14.46L4,17.54C4,18.05 4.41,18.46 4.92,18.46L8.31,18.46L8.31,17.23L5.54,17.23C5.37,17.23 5.23,17.09 5.23,16.92L5.23,15.08C5.23,14.91 5.37,14.77 5.54,14.77L8.31,14.77L8.31,13.54L4.92,13.54M15.38,13.54C14.87,13.54 14.46,13.95 14.46,14.46L14.46,18.46L15.69,18.46L15.69,15.08C15.69,14.91 15.83,14.77 16,14.77L16.62,14.77L16.62,18.46L17.85,18.46L17.85,14.77L18.77,14.77L18.77,18.46L20,18.46L20,13.54L15.38,13.54Z" style="fill-rule:nonzero;"/>
    </g>
</svg>
