<?xml version="1.0" encoding="UTF-8" standalone="no"?>
<!DOCTYPE svg PUBLIC "-//W3C//DTD SVG 1.1//EN" "http://www.w3.org/Graphics/SVG/1.1/DTD/svg11.dtd">
<svg width="100%" height="100%" viewBox="0 0 256 256" version="1.1" xmlns="http://www.w3.org/2000/svg" xmlns:xlink="http://www.w3.org/1999/xlink" xml:space="preserve" xmlns:serif="http://www.serif.com/" style="fill-rule:evenodd;clip-rule:evenodd;stroke-linejoin:round;stroke-miterlimit:2;">
    <g transform="matrix(0.882961,0,0,0.882961,-5.49561e-05,0.0294906)">
        <path d="M285.31,164.22C285.05,164.34 284.779,164.445 284.501,164.534C284.224,164.624 283.937,164.697 283.643,164.757C283.347,164.816 283.044,164.86 282.731,164.888L219.84,170.314L180.115,196.346L240.687,190.473C240.987,190.442 241.281,190.398 241.565,190.339C241.851,190.279 242.128,190.204 242.398,190.114C242.667,190.027 242.929,189.924 243.179,189.807C243.432,189.691 243.675,189.561 243.909,189.419C257.959,180.888 272.009,172.355 286.06,163.823C285.818,163.968 285.568,164.101 285.31,164.22Z" style="fill:url(#_Linear1);"/>
    </g>
    <g transform="matrix(0.882961,0,0,0.882961,-5.49561e-05,0.0294906)">
        <path d="M96.079,11.733C95.887,10.878 95.795,10.047 95.793,9.246C95.79,8.447 95.88,7.681 96.054,6.956C96.226,6.231 96.483,5.551 96.816,4.922C97.147,4.293 97.555,3.717 98.03,3.204C87.121,14.992 76.212,26.779 65.306,38.567C64.844,39.065 64.45,39.62 64.124,40.226C63.8,40.832 63.548,41.486 63.373,42.181C63.199,42.875 63.105,43.609 63.098,44.373C63.091,45.136 63.171,45.93 63.346,46.742L77.867,114.409L112.065,82.909L96.079,11.733Z" style="fill:url(#_Linear2);"/>
    </g>
    <g transform="matrix(0.882961,0,0,0.882961,-5.49561e-05,0.0294906)">
        <path d="M232.704,257.114C232.47,257.212 232.231,257.298 231.985,257.376C231.74,257.453 231.487,257.519 231.232,257.576C230.976,257.631 230.714,257.677 230.445,257.712L164.889,266.167C163.33,266.368 161.765,266.208 160.269,265.742C158.77,265.278 157.34,264.51 156.055,263.5C154.771,262.487 153.634,261.233 152.718,259.795C151.804,258.358 151.111,256.738 150.721,254.998L133.376,177.775L97.176,204.386L112.857,277.454C113.211,279.1 113.851,280.626 114.709,281.981C115.566,283.332 116.638,284.512 117.854,285.457C119.068,286.405 120.427,287.119 121.852,287.546C123.277,287.973 124.771,288.11 126.264,287.909L189.142,279.312C189.396,279.276 189.649,279.231 189.896,279.176C190.143,279.12 190.384,279.054 190.622,278.981C190.858,278.905 191.088,278.82 191.315,278.726C191.54,278.632 191.761,278.528 191.974,278.416C205.779,271.209 219.583,264.002 233.388,256.796C233.165,256.91 232.938,257.019 232.704,257.114Z" style="fill:url(#_Linear3);"/>
    </g>
    <g transform="matrix(0.882961,0,0,0.882961,-5.49561e-05,0.0294906)">
        <path d="M60.65,184.051C58.99,184.192 57.333,183.98 55.758,183.465C54.181,182.953 52.689,182.141 51.36,181.094C50.03,180.048 48.866,178.765 47.943,177.31C47.022,175.856 46.346,174.23 45.991,172.492L30.897,98.502C30.704,97.56 30.624,96.637 30.647,95.747C30.668,94.858 30.793,94.002 31.012,93.191C31.23,92.381 31.541,91.616 31.935,90.908C32.33,90.201 32.809,89.551 33.362,88.971C23.127,99.716 12.894,110.46 2.658,121.204C2.125,121.764 1.663,122.387 1.281,123.064C0.898,123.742 0.594,124.472 0.378,125.246C0.164,126.019 0.036,126.834 0.006,127.678C-0.023,128.525 0.045,129.399 0.22,130.295L13.877,200.327C14.197,201.969 14.826,203.502 15.689,204.87C16.552,206.24 17.648,207.442 18.903,208.42C20.158,209.398 21.57,210.148 23.065,210.619C24.56,211.087 26.137,211.275 27.719,211.122L97.176,204.386L133.376,177.775L60.65,184.051Z" style="fill:url(#_Linear4);"/>
    </g>
    <g transform="matrix(0.882961,0,0,0.882961,-5.49561e-05,0.0294906)">
        <path d="M289.891,155.141L289.891,155.134L289.889,155.124C289.826,154.39 289.695,153.635 289.493,152.868L272.155,87.061C271.958,86.317 271.7,85.593 271.388,84.898L271.387,84.894L271.383,84.888C271.071,84.193 270.706,83.528 270.294,82.896C269.47,81.627 268.463,80.498 267.338,79.563C266.781,79.099 266.195,78.684 265.589,78.321L265.573,78.31L265.558,78.303C264.95,77.941 264.321,77.634 263.68,77.387C263.032,77.139 262.371,76.953 261.706,76.836C261.04,76.719 260.372,76.672 259.707,76.7L197.48,79.317L180.677,10.935C180.313,9.448 179.681,8.037 178.851,6.756C178.436,6.117 177.972,5.508 177.466,4.941L177.464,4.938L177.461,4.935C176.956,4.368 176.41,3.84 175.832,3.359C174.673,2.393 173.381,1.615 172.029,1.078C171.352,0.81 170.66,0.603 169.961,0.462L169.956,0.461L169.953,0.461C169.253,0.321 168.546,0.25 167.841,0.252L104.496,0.529C103.749,0.533 103.035,0.613 102.363,0.762L102.355,0.763L102.349,0.764C101.675,0.916 101.042,1.136 100.455,1.419C99.274,1.986 98.28,2.805 97.516,3.816C96.752,4.829 96.219,6.035 95.964,7.373C95.836,8.044 95.777,8.747 95.795,9.476C95.812,10.204 95.905,10.959 96.079,11.733L112.065,82.909L40.344,85.925C38.707,85.994 37.215,86.396 35.918,87.063C35.272,87.395 34.673,87.793 34.129,88.25L34.122,88.256L34.116,88.263C33.572,88.721 33.084,89.235 32.657,89.8C31.799,90.938 31.188,92.276 30.877,93.748C30.722,94.484 30.641,95.253 30.643,96.047L30.642,96.05L30.642,96.053C30.643,96.848 30.726,97.667 30.897,98.502L45.991,172.492C46.168,173.357 46.425,174.192 46.751,174.996L46.754,175.008L46.76,175.017C47.088,175.82 47.485,176.587 47.943,177.31C48.403,178.037 48.924,178.719 49.496,179.353L49.499,179.356L49.505,179.361C50.075,179.992 50.697,180.573 51.36,181.094C52.689,182.141 54.181,182.953 55.758,183.465C57.333,183.98 58.99,184.192 60.65,184.051L133.376,177.775L150.721,254.998C150.913,255.859 151.182,256.69 151.514,257.484L151.521,257.513L151.535,257.537C151.869,258.329 152.266,259.084 152.718,259.795C153.174,260.513 153.687,261.184 154.245,261.802L154.248,261.809L154.254,261.813C154.812,262.43 155.415,262.995 156.055,263.5C156.692,264 157.366,264.443 158.066,264.817L158.081,264.826L158.097,264.833C158.798,265.207 159.523,265.513 160.269,265.742C161.016,265.974 161.779,266.13 162.55,266.203L162.557,266.206L162.566,266.206C163.336,266.276 164.113,266.268 164.889,266.167L230.445,257.712C231.174,257.617 231.863,257.44 232.509,257.192L232.519,257.19L232.528,257.184C233.172,256.934 233.772,256.612 234.324,256.227C234.876,255.841 235.379,255.391 235.83,254.889L235.842,254.877L235.853,254.86C236.301,254.358 236.696,253.801 237.035,253.199C237.717,251.982 238.164,250.58 238.341,249.067C238.516,247.558 238.419,245.933 238.011,244.269L219.84,170.314L282.731,164.888C284.076,164.771 285.274,164.347 286.289,163.676C287.302,163.008 288.132,162.097 288.743,161.009C289.046,160.468 289.295,159.882 289.485,159.261L289.488,159.251L289.491,159.242C289.681,158.62 289.812,157.964 289.879,157.277C289.947,156.591 289.952,155.875 289.891,155.141Z" style="fill:url(#_Linear5);"/>
    </g>
    <g transform="matrix(0.882961,0,0,0.882961,-5.49561e-05,0.0294906)">
        <path d="M98.065,113.408L105.092,149.266L70.746,152.129L63.723,115.552L98.065,113.408ZM113.645,155.729L103.878,105.88L55.168,108.922L64.935,159.791L113.645,155.729Z" style="fill:rgb(208,117,0);fill-rule:nonzero;"/>
    </g>
    <g transform="matrix(0.882961,0,0,0.882961,-5.49561e-05,0.0294906)">
        <path d="M258.347,135.911C255.319,139.274 250.958,141.127 246.066,141.127C235.341,141.127 225.326,132.049 224.197,121.303C223.677,116.343 225.078,111.738 228.142,108.335C231.17,104.971 235.531,103.119 240.423,103.119C251.148,103.119 261.163,112.197 262.292,122.942C262.813,127.903 261.411,132.508 258.347,135.911ZM269.343,122.202C267.826,107.77 254.853,96.029 240.423,96.029C233.496,96.029 227.263,98.715 222.872,103.591C218.445,108.507 216.412,115.061 217.146,122.044C218.663,136.476 231.637,148.217 246.066,148.217C252.993,148.217 259.226,145.531 263.617,140.654C268.044,135.738 270.077,129.185 269.343,122.202Z" style="fill:rgb(208,117,0);fill-rule:nonzero;"/>
    </g>
    <g transform="matrix(0.882961,0,0,0.882961,-5.49561e-05,0.0294906)">
        <path d="M210.018,237.603L214.418,231.733L193.771,216.828L208.699,196.152L202.83,191.753L187.914,212.413L164.953,195.2L160.552,201.07L183.498,218.271L166.298,241.216L172.167,245.615L189.356,222.687L210.018,237.603Z" style="fill:rgb(208,117,0);fill-rule:nonzero;"/>
    </g>
    <g transform="matrix(0.882961,0,0,0.882961,-5.49561e-05,0.0294906)">
        <path d="M168.191,55.686L132.653,56.946L144.987,24.221L168.191,55.686ZM143.417,10.994L121.268,64.587L178.876,61.271L143.417,10.994Z" style="fill:rgb(208,117,0);fill-rule:nonzero;"/>
    </g>
    <defs>
        <linearGradient id="_Linear1" x1="0" y1="0" x2="1" y2="0" gradientUnits="userSpaceOnUse" gradientTransform="matrix(83.0986,30.2454,-30.2454,83.0986,191.538,164.962)"><stop offset="0" style="stop-color:rgb(211,156,4);stop-opacity:1"/><stop offset="0.5" style="stop-color:rgb(191,107,17);stop-opacity:1"/><stop offset="1" style="stop-color:rgb(191,107,17);stop-opacity:1"/></linearGradient>
        <linearGradient id="_Linear2" x1="0" y1="0" x2="1" y2="0" gradientUnits="userSpaceOnUse" gradientTransform="matrix(56.1292,20.4294,-20.4294,56.1292,60.8613,48.9468)"><stop offset="0" style="stop-color:rgb(211,156,4);stop-opacity:1"/><stop offset="0.5" style="stop-color:rgb(191,107,17);stop-opacity:1"/><stop offset="1" style="stop-color:rgb(191,107,17);stop-opacity:1"/></linearGradient>
        <linearGradient id="_Linear3" x1="0" y1="0" x2="1" y2="0" gradientUnits="userSpaceOnUse" gradientTransform="matrix(137.122,49.9082,-49.9082,137.122,91.647,219.58)"><stop offset="0" style="stop-color:rgb(211,156,4);stop-opacity:1"/><stop offset="0.5" style="stop-color:rgb(191,107,17);stop-opacity:1"/><stop offset="1" style="stop-color:rgb(191,107,17);stop-opacity:1"/></linearGradient>
        <linearGradient id="_Linear4" x1="0" y1="0" x2="1" y2="0" gradientUnits="userSpaceOnUse" gradientTransform="matrix(134.35,48.8995,-48.8995,134.35,-4.28467,137.973)"><stop offset="0" style="stop-color:rgb(211,156,4);stop-opacity:1"/><stop offset="0.5" style="stop-color:rgb(191,107,17);stop-opacity:1"/><stop offset="1" style="stop-color:rgb(191,107,17);stop-opacity:1"/></linearGradient>
        <linearGradient id="_Linear5" x1="0" y1="0" x2="1" y2="0" gradientUnits="userSpaceOnUse" gradientTransform="matrix(128.775,-183.91,183.91,128.775,98.603,223.298)"><stop offset="0" style="stop-color:rgb(251,246,200);stop-opacity:1"/><stop offset="0.1" style="stop-color:rgb(251,246,200);stop-opacity:1"/><stop offset="0.2" style="stop-color:rgb(250,241,177);stop-opacity:1"/><stop offset="0.5" style="stop-color:rgb(249,204,0);stop-opacity:1"/><stop offset="1" style="stop-color:rgb(249,204,0);stop-opacity:1"/></linearGradient>
    </defs>
</svg>
