<?xml version="1.0" encoding="UTF-8"?>
<!-- Generated by Pixelmator Pro 3.6.13 -->
<svg width="1024" height="1024" viewBox="0 0 1024 1024" xmlns="http://www.w3.org/2000/svg" xmlns:xlink="http://www.w3.org/1999/xlink">
    <path id="Rounded-Rectangle-copy" fill="#000000" fill-rule="evenodd" stroke="none" d="M 0 796.444458 C -0 922.119934 101.880089 1024 227.555557 1024 L 796.444458 1024 C 922.119934 1024 1024 922.119934 1024 796.444458 L 1024 227.555542 C 1024 101.880066 922.119934 0 796.444458 0 L 227.555557 0 C 101.880089 0 0 101.880066 0 227.555542 Z"/>
    <mask id="mask1" maskUnits="userSpaceOnUse" maskContentUnits="userSpaceOnUse" mask-type="alpha">
        <linearGradient id="linearGradient1" x1="512.08" y1="935.72" x2="512.08" y2="86.72" gradientUnits="userSpaceOnUse">
            <stop offset="0" stop-color="#b7b7b7" stop-opacity="1"/>
            <stop offset="1" stop-color="#ffffff" stop-opacity="1"/>
        </linearGradient>
        <path id="Rounded-Rectangle" fill="url(#linearGradient1)" fill-rule="evenodd" stroke="none" visibility="hidden" d="M 0 796.444458 C -0 922.119934 101.880089 1024 227.555557 1024 L 796.444458 1024 C 922.119934 1024 1024 922.119934 1024 796.444458 L 1024 227.555542 C 1024 101.880066 922.119934 0 796.444458 0 L 227.555557 0 C 101.880089 0 0 101.880066 0 227.555542 Z"/>
    </mask>
    <g id="Group" mask="url(#mask1)"/>
    <g id="g1">
        <path id="Shape-copy-3" fill="#ffffff" fill-rule="evenodd" stroke="none" d="M 612.968079 622.243896 C 611.127869 622.071411 609.118469 621.843933 606.970764 621.60083 C 581.319458 618.697144 535.122314 635.380493 523 695 C 522.984192 694.908203 522.97583 649.439209 523 614 C 523.05719 530.036255 523.029602 382.035522 523 340 C 522.963318 287.901794 623.347656 249.470398 695.740723 248.705627 C 768.13385 247.940979 837.939941 378.170654 837.939941 378.170654 C 837.939941 378.170654 902.60675 471.347168 903.733643 620.121521 C 904.860474 768.895935 833.69519 764.443115 833.69519 764.443115 C 833.69519 764.443115 790.075378 770.285767 721.20929 702.894226 C 652.34314 635.502563 636.786499 624.476807 612.968079 622.243896 Z M 702.107849 497.023743 C 719.690247 497.023743 733.943542 511.277039 733.943542 528.859375 C 733.943542 546.44165 719.690247 560.694946 702.107849 560.694946 C 684.525513 560.694946 670.272217 546.44165 670.272217 528.859375 C 670.272217 511.277039 684.525513 497.023743 702.107849 497.023743 Z M 632.069458 426.985291 C 649.651794 426.985291 663.90509 441.238586 663.90509 458.820984 C 663.90509 476.403259 649.651794 490.656616 632.069458 490.656616 C 614.487122 490.656616 600.233826 476.403259 600.233826 458.820984 C 600.233826 441.238586 614.487122 426.985291 632.069458 426.985291 Z M 803.981934 458.820984 C 803.981934 441.238586 789.728638 426.985291 772.146301 426.985291 C 754.563965 426.985291 740.310669 441.238586 740.310669 458.820984 C 740.310669 476.403259 754.563965 490.656616 772.146301 490.656616 C 789.728638 490.656616 803.981934 476.403259 803.981934 458.820984 Z M 733.943542 386.660156 C 733.943542 369.077759 719.690247 354.824463 702.107849 354.824463 C 684.525513 354.824463 670.272217 369.077759 670.272217 386.660156 C 670.272217 404.242493 684.525513 418.495789 702.107849 418.495789 C 719.690247 418.495789 733.943542 404.242493 733.943542 386.660156 Z M 501 695 C 501.053741 694.999939 501.047241 399.961487 501 340 C 500.958954 287.901794 400.969635 249.470398 328.576477 248.705627 C 256.18338 247.940979 186.377274 378.170654 186.377274 378.170654 C 186.377274 378.170654 121.710472 471.347168 120.583618 620.121521 C 119.456749 768.895935 190.62204 764.443115 190.62204 764.443115 C 190.62204 764.443115 234.241821 770.285767 303.107971 702.894226 C 371.974091 635.502563 387.530731 624.476807 411.349152 622.243896 C 413.189301 622.071411 415.198761 621.843933 417.346436 621.60083 C 442.997772 618.697144 488.87793 635.380432 501 695 Z M 362.527679 545.838379 L 309.468262 545.838379 L 309.468262 484.28949 L 247.919357 484.28949 L 247.919357 431.230042 L 309.468262 431.230042 L 309.468262 367.558777 L 362.527679 367.558777 L 362.527679 431.230042 L 424.076599 431.230042 L 424.076599 484.28949 L 362.527679 484.28949 L 362.527679 545.838379 Z"/>
    </g>
</svg>
