<?xml version="1.0" encoding="UTF-8" standalone="no"?>
<!DOCTYPE svg PUBLIC "-//W3C//DTD SVG 1.1//EN" "http://www.w3.org/Graphics/SVG/1.1/DTD/svg11.dtd">
<svg width="100%" height="100%" viewBox="0 0 256 256" version="1.1" xmlns="http://www.w3.org/2000/svg" xmlns:xlink="http://www.w3.org/1999/xlink" xml:space="preserve" xmlns:serif="http://www.serif.com/" style="fill-rule:evenodd;clip-rule:evenodd;stroke-linejoin:round;stroke-miterlimit:2;">
    <g transform="matrix(0.32,0,0,0.32,0,0)">
        <path d="M638.4,0C727.7,0 800,72.3 800.1,161.6L800.1,638.4C800.1,727.7 727.7,800 638.5,800L161.6,800C72.3,800 0,727.7 0,638.5L0,161.6C0,72.3 72.3,0 161.6,0L638.4,0ZM396.6,183.8L380.7,155.7C370.5,138.2 348.4,132.3 330.9,142.3C313.4,152.5 307.5,174.6 317.5,192.1L354.6,256.5L235.8,462.4L143,462.4C122.8,462.4 106.6,478.6 106.6,498.8C106.6,519 122.8,535.2 143,535.2L474,535.2C489.9,505.4 469.4,462.4 432.8,462.4L319.9,462.4L476,192.2C486,174.7 480.1,152.4 462.6,142.4C445.1,132.4 422.8,138.3 412.8,155.8L396.6,183.8ZM256.2,572.7C237.3,549.9 213.4,542.9 184,552L158,597C148,614.5 153.9,636.8 171.4,646.8C188.9,656.8 211.2,650.9 221.2,633.4L256.2,572.7ZM557.6,462.6C509.9,380 474.2,318.1 450.3,277.1C428.8,295 407,347.8 437.5,400.4C467.3,452.1 512.2,529.7 572,633.4C582.2,650.9 604.3,656.8 621.8,646.8C639.3,636.6 645.2,614.5 635.2,597L599.7,535.4L652.3,535.4C672.5,535.4 688.7,519.2 688.7,499C688.7,478.8 672.5,462.6 652.3,462.6L557.6,462.6Z"/>
    </g>
</svg>
