<?xml version="1.0" encoding="UTF-8" standalone="no"?>
<!DOCTYPE svg PUBLIC "-//W3C//DTD SVG 1.1//EN" "http://www.w3.org/Graphics/SVG/1.1/DTD/svg11.dtd">
<svg width="100%" height="100%" viewBox="0 0 256 256" version="1.1" xmlns="http://www.w3.org/2000/svg" xmlns:xlink="http://www.w3.org/1999/xlink" xml:space="preserve" xmlns:serif="http://www.serif.com/" style="fill-rule:evenodd;clip-rule:evenodd;stroke-linejoin:round;stroke-miterlimit:2;">
    <g transform="matrix(1.04192,0,0,1.04192,-109.515,-40.5436)">
        <g id="g14">
            <g>
                <g id="g16">
                    <g id="g50" transform="matrix(1,0,0,1,243.818,110.312)">
                        <path id="path52" d="M-65.6,84.7L-94.2,84.7C-96.4,84.7 -98.2,86.5 -98.2,88.8L-98.2,109.2C-98.2,111.4 -96.4,113.3 -94.2,113.3L-65.6,113.3L-65.6,126.9L-101.3,126.9C-107.1,126.9 -111.9,122.2 -111.9,116.4L-111.9,81.6C-111.9,75.8 -107.2,71.1 -101.3,71.1L-65.6,71.1L-65.6,84.7Z"/>
                    </g>
                    <g id="g54" transform="matrix(1,0,0,1,246.192,119.026)">
                        <path id="path56" d="M-57.6,38.1C-57.6,44 -62.4,48.8 -68.3,48.8L-114.2,48.8L-114.2,35L-75.5,35C-73.2,35 -71.4,33.1 -71.4,30.9L-71.4,-14.7C-71.4,-17 -73.2,-18.8 -75.5,-18.8L-96.2,-18.8C-98.5,-18.8 -100.3,-17 -100.3,-14.7L-100.3,6C-100.3,8.3 -98.5,10.1 -96.2,10.1L-79.6,10.1L-79.6,23.9L-103.4,23.9C-109.3,23.9 -114.1,19.1 -114.1,13.2L-114.1,-22C-114.1,-27.9 -109.3,-32.7 -103.4,-32.7L-68.2,-32.7C-62.3,-32.7 -57.5,-27.9 -57.5,-22L-57.5,38.1L-57.6,38.1Z"/>
                    </g>
                    <g id="g58" transform="matrix(1,0,0,1,277.298,100.614)">
                        <path id="path60" d="M46.5,136.6L32.9,136.6L32.9,94.4L23.4,94.4C21.2,94.4 19.4,96.2 19.4,98.5L19.4,136.6L5.7,136.6L5.7,94.4L-3.8,94.4C-6.1,94.4 -7.9,96.2 -7.9,98.5L-7.9,136.6L-21.5,136.6L-21.5,91.3C-21.5,85.5 -16.8,80.8 -11,80.8L46.5,80.8L46.5,136.6Z"/>
                    </g>
                    <g id="g62" transform="matrix(1,0,0,1,277.307,119.026)">
                        <path id="path64" d="M46.6,38.1C46.6,44 41.8,48.8 35.9,48.8L-10,48.8L-10,35L28.7,35C31,35 32.8,33.1 32.8,30.9L32.8,-14.7C32.8,-17 31,-18.8 28.7,-18.8L7.9,-18.8C5.6,-18.8 3.8,-17 3.8,-14.7L3.8,6C3.8,8.3 5.6,10.1 7.9,10.1L24.5,10.1L24.5,23.9L0.7,23.9C-5.2,23.9 -10,19.1 -10,13.2L-10,-22C-10,-27.9 -5.2,-32.7 0.7,-32.7L35.9,-32.7C41.8,-32.7 46.6,-27.9 46.6,-22L46.6,38.1Z"/>
                    </g>
                    <g id="g66" transform="matrix(1,0,0,1,258.569,131.166)">
                        <path id="path68" d="M-16.2,-26.8L-16.2,-6.1C-16.2,-3.8 -18,-2 -20.3,-2L-41,-2C-43.3,-2 -45.1,-3.9 -45.1,-6.1L-45.1,-26.8C-45.1,-29.1 -43.3,-30.9 -41,-30.9L-20.3,-30.9C-18,-31 -16.2,-29.1 -16.2,-26.8ZM-13,-44.8L-48.2,-44.8C-54.1,-44.8 -58.9,-40 -58.9,-34.1L-58.9,1.1C-58.9,7 -54.1,11.8 -48.2,11.8L-13,11.8C-7.1,11.8 -2.3,7 -2.3,1.1L-2.3,-34.1C-2.3,-40 -7.1,-44.8 -13,-44.8"/>
                    </g>
                    <g id="g70" transform="matrix(1,0,0,1,256.022,109.371)">
                        <path id="path72" d="M-24.7,89.7L-24.7,110.1C-24.7,112.3 -26.5,114.2 -28.7,114.2L-49.1,114.2C-51.3,114.2 -53.1,112.4 -53.1,110.1L-53.1,89.7C-53.1,87.5 -51.3,85.6 -49.1,85.6L-28.7,85.6C-26.5,85.6 -24.7,87.5 -24.7,89.7ZM-21.6,72L-56.3,72C-62.1,72 -66.9,76.7 -66.9,82.5L-66.9,117.2C-66.9,123 -62.2,127.7 -56.3,127.7L-21.6,127.7C-15.8,127.7 -11.1,123 -11.1,117.2L-11.1,82.6C-11.1,76.8 -15.8,72 -21.6,72"/>
                    </g>
                    <g id="g74" transform="matrix(1,0,0,1,282.308,95.1629)">
                        <path id="path76" d="M63.3,165.7C63.3,169.2 61.9,172.4 59.6,174.7C57.3,177 54.2,178.4 50.7,178.4L-159.4,178.4C-162.9,178.4 -166,177 -168.3,174.7C-170.6,172.4 -172,169.3 -172,165.7L-172,-32.5C-172,-36 -170.6,-39.1 -168.3,-41.4C-166,-43.7 -162.9,-45.1 -159.4,-45.1L50.7,-45.1C54.2,-45.1 57.3,-43.7 59.6,-41.4C61.9,-39.1 63.3,-36 63.3,-32.5L63.3,165.7ZM63.3,-45.1C60.1,-48.3 55.6,-50.3 50.7,-50.3L-159.4,-50.3C-164.3,-50.3 -168.8,-48.3 -172,-45.1C-175.2,-41.9 -177.2,-37.4 -177.2,-32.5L-177.2,165.7C-177.2,170.6 -175.2,175.1 -172,178.3C-168.8,181.5 -164.3,183.5 -159.4,183.5L50.7,183.5C55.6,183.5 60.1,181.5 63.3,178.3C66.5,175.1 68.5,170.6 68.5,165.7L68.5,-32.5C68.5,-37.4 66.5,-41.9 63.3,-45.1" style="fill-rule:nonzero;"/>
                    </g>
                </g>
            </g>
        </g>
    </g>
</svg>
